# xmcd
#
# Track frame offsets:
#	183
#	24353
#	38943
#	75035
#	89678
#	121230
#
# Disc length: 2078 seconds
#
# Revision: 0
# Processed by: cddbd v1.4PL0 Copyright (c) Steve Scherf et al.
# Submitted via: EasyCDDAExtractor 5.0.5.1
#
DISCID=39081c06
DTITLE=김영동 - 김영동의 명상음악 (禪 2)
DYEAR=1900
DGENRE=전통음악
TTITLE0=귀소
TTITLE1=아침의 소리
TTITLE2=여명(수룡음)
TTITLE3=산행
TTITLE4=영가
TTITLE5=영산회상불보살
EXTD=
EXTT0=
EXTT1=
EXTT2=
EXTT3=
EXTT4=
EXTT5=
PLAYORDER=
